<svg width="245" height="120" viewBox="0 0 245 120" fill="none" xmlns="http://www.w3.org/2000/svg">
    <g clip-path="url(#clip0_522_1237)">
        <path opacity="0.15"
              d="M239.188 33.291C238.766 31.196 237.191 29.5226 235.125 28.9748C233.059 28.4269 230.862 29.0998 229.457 30.7102L205.77 57.8613L169.609 53.5819C167.489 53.3309 165.41 54.3049 164.245 56.0946C163.081 57.8844 163.033 60.1799 164.121 62.0168L182.736 93.4334L167.535 126.072C166.629 128.018 166.912 130.31 168.264 131.977C169.616 133.645 171.801 134.394 173.892 133.909L209.219 125.713L235.722 150.477C237.289 151.941 239.555 152.385 241.558 151.618C243.562 150.852 244.954 149.011 245.145 146.875L248.345 111.013L280.135 93.099C281.993 92.0516 283.097 90.0409 282.984 87.9103C282.87 85.7798 281.558 83.8979 279.599 83.0541L246.331 68.7294L239.188 33.291Z"
              fill="white"/>
        <path opacity="0.15"
              d="M229.232 62.3134C229.038 61.3518 228.315 60.5837 227.367 60.3323C226.418 60.0808 225.41 60.3897 224.765 61.1288L213.893 73.591L197.295 71.6267C196.322 71.5115 195.368 71.9586 194.833 72.7801C194.299 73.6015 194.277 74.6551 194.776 75.4983L203.321 89.9182L196.344 104.899C195.928 105.792 196.057 106.844 196.678 107.61C197.299 108.375 198.301 108.719 199.261 108.496L215.476 104.734L227.641 116.101C228.36 116.773 229.4 116.976 230.319 116.625C231.239 116.273 231.878 115.428 231.965 114.447L233.434 97.9872L248.026 89.7647C248.879 89.284 249.386 88.3611 249.333 87.3832C249.281 86.4053 248.679 85.5415 247.78 85.1542L232.51 78.5793L229.232 62.3134Z"
              fill="white"/>
        <path opacity="0.15"
              d="M133.955 76.685C133.308 76.4672 132.593 76.6358 132.112 77.1198C131.63 77.6038 131.465 78.3192 131.687 78.9651L135.415 89.8549L128.455 99.1755C128.047 99.722 127.984 100.453 128.293 101.061C128.602 101.669 129.23 102.049 129.912 102.041L141.577 101.909L148.179 111.328C148.572 111.889 149.252 112.177 149.929 112.07C150.606 111.962 151.162 111.477 151.362 110.821L154.737 99.7385L165.822 96.3618C166.477 96.1621 166.962 95.6062 167.07 94.9295C167.178 94.2528 166.891 93.5736 166.33 93.1796L156.92 86.5662L157.042 74.9099C157.049 74.2284 156.669 73.6018 156.061 73.2929C155.454 72.984 154.723 73.0463 154.177 73.4537L144.9 80.3695L133.955 76.685Z"
              fill="white"/>
        <path opacity="0.15"
              d="M191.19 27.0331C190.922 27.2695 190.811 27.6378 190.904 27.983C190.998 28.3281 191.279 28.5903 191.63 28.6591L197.546 29.8199L199.951 35.4179C200.092 35.7461 200.407 35.9659 200.764 35.9849C201.121 36.0039 201.457 35.8189 201.633 35.5075L204.628 30.1817L210.629 29.6538C210.987 29.6223 211.295 29.3895 211.424 29.0541C211.552 28.7187 211.478 28.3394 211.233 28.077L207.09 23.6436L208.461 17.7314C208.542 17.3818 208.417 17.0165 208.138 16.7902C207.859 16.5639 207.476 16.5163 207.15 16.6674L201.686 19.2039L196.431 16.0961C196.123 15.9144 195.74 15.9226 195.441 16.1173C195.141 16.312 194.978 16.6596 195.02 17.0141L195.728 23.0332L191.19 27.0331Z"
              fill="white"/>
    </g>
    <defs>
        <clipPath id="clip0_522_1237">
            <rect width="245" height="120" fill="white"/>
        </clipPath>
    </defs>
</svg>
